<svg width="32" height="24" viewBox="0 0 32 24" fill="none" xmlns="http://www.w3.org/2000/svg">
<path d="M0 5.03371H14.0225L15.1011 7.19101H1.07865L0 5.03371ZM1.4382 9.34831H15.4607L16.5393 11.5056H2.51685L1.4382 9.34831ZM24.809 20.8539C26.0027 20.8539 26.9663 19.8903 26.9663 18.6966C26.9663 17.5029 26.0027 16.5393 24.809 16.5393C23.6153 16.5393 22.6517 17.5029 22.6517 18.6966C22.6517 19.8903 23.6153 20.8539 24.809 20.8539ZM26.9663 7.91011H23.3708V11.5056H29.7852L26.9663 7.91011ZM10.427 20.8539C11.6207 20.8539 12.5843 19.8903 12.5843 18.6966C12.5843 17.5029 11.6207 16.5393 10.427 16.5393C9.23326 16.5393 8.26966 17.5029 8.26966 18.6966C8.26966 19.8903 9.23326 20.8539 10.427 20.8539ZM27.6854 5.75281L32 11.5056V18.6966H29.1236C29.1236 21.084 27.1964 23.0112 24.809 23.0112C22.4216 23.0112 20.4944 21.084 20.4944 18.6966H14.7416C14.7416 21.084 12.8 23.0112 10.427 23.0112C8.03955 23.0112 6.11236 21.084 6.11236 18.6966H3.23595V13.6629H6.11236V15.8202H7.20539C7.99641 14.9429 9.14697 14.382 10.427 14.382C11.707 14.382 12.8575 14.9429 13.6485 15.8202H20.4944V2.8764H3.23595C3.23595 1.28 4.51595 0 6.11236 0H23.3708V5.75281H27.6854Z" fill="black"/>
</svg>
