<svg width="30" height="30" viewBox="0 0 30 30" fill="none" xmlns="http://www.w3.org/2000/svg">
<path d="M28.028 11.3858C27.5728 10.9112 27.1034 10.4211 26.9496 10.05C26.8125 9.71897 26.8022 9.0375 26.7931 8.4375C26.7737 7.1444 26.7491 5.53578 25.606 4.39397C24.4629 3.25216 22.8556 3.23017 21.5625 3.2069C20.9625 3.19784 20.281 3.1875 19.95 3.05043C19.5789 2.89655 19.0888 2.42716 18.6142 1.97198C17.6987 1.09397 16.5582 0 15 0C13.4418 0 12.3013 1.09397 11.3858 1.97198C10.9112 2.42716 10.4211 2.89655 10.05 3.05043C9.71897 3.1875 9.0375 3.19784 8.4375 3.2069C7.1444 3.23276 5.53578 3.25086 4.39655 4.39655C3.25733 5.54224 3.23276 7.1444 3.2069 8.4375C3.19784 9.0375 3.1875 9.71897 3.05043 10.05C2.89655 10.4211 2.42716 10.9112 1.97198 11.3858C1.09397 12.3013 0 13.4483 0 15C0 16.5517 1.09397 17.6987 1.97198 18.6207C2.42716 19.0953 2.89655 19.5853 3.05043 19.9565C3.1875 20.2875 3.19784 20.969 3.2069 21.569C3.22629 22.8621 3.25086 24.4707 4.39397 25.6125C5.53707 26.7543 7.1444 26.7763 8.4375 26.7996C9.0375 26.8086 9.71897 26.819 10.05 26.956C10.4211 27.1099 10.9112 27.5793 11.3858 28.0345C12.3013 28.906 13.4483 30 15 30C16.5517 30 17.6987 28.906 18.6142 28.028C19.0888 27.5728 19.5789 27.1034 19.95 26.9496C20.281 26.8125 20.9625 26.8022 21.5625 26.7931C22.8556 26.7737 24.4642 26.7491 25.606 25.606C26.7478 24.4629 26.7698 22.8556 26.7931 21.5625C26.8022 20.9625 26.8125 20.281 26.9496 19.95C27.1034 19.5789 27.5728 19.0888 28.028 18.6142C28.906 17.6987 30 16.5582 30 15C30 13.4418 28.906 12.3013 28.028 11.3858ZM25.7884 16.4664C25.1651 17.1129 24.4591 17.8526 24.0828 18.7629C23.7181 19.6422 23.7039 20.594 23.6948 21.5159C23.6845 22.2091 23.6703 23.1595 23.4168 23.4116C23.1634 23.6638 22.2142 23.6793 21.5211 23.6897C20.5991 23.7039 19.6474 23.7181 18.7681 24.0776C17.8629 24.4539 17.122 25.1599 16.4716 25.7832C16.006 26.2293 15.3103 26.8966 15 26.8966C14.6897 26.8966 13.994 26.2293 13.5336 25.7884C12.8871 25.1651 12.1474 24.4591 11.2371 24.0828C10.3578 23.7181 9.40603 23.7039 8.48405 23.6948C7.79095 23.6845 6.84052 23.6703 6.58836 23.4168C6.33621 23.1634 6.32069 22.2142 6.31034 21.5211C6.29612 20.5991 6.2819 19.6474 5.92241 18.7681C5.54612 17.8629 4.84009 17.122 4.21681 16.4716C3.77069 16.006 3.10345 15.3103 3.10345 15C3.10345 14.6897 3.77069 13.994 4.21164 13.5336C4.83491 12.8871 5.54095 12.1474 5.91724 11.2371C6.2819 10.3578 6.29612 9.40603 6.30517 8.48405C6.32069 7.79095 6.33621 6.84052 6.59483 6.59483C6.85345 6.34914 7.79741 6.32715 8.49052 6.31681C9.4125 6.30259 10.3642 6.28836 11.2435 5.92888C12.1487 5.55259 12.8897 4.84655 13.5401 4.22328C13.994 3.77069 14.6897 3.10345 15 3.10345C15.3103 3.10345 16.006 3.77069 16.4664 4.21164C17.1129 4.83491 17.8526 5.54095 18.7629 5.91724C19.6422 6.2819 20.594 6.29612 21.5159 6.30517C22.2091 6.31552 23.1595 6.32974 23.4116 6.58319C23.6638 6.83664 23.6793 7.78578 23.6897 8.47888C23.7039 9.40086 23.7181 10.3526 24.0776 11.2319C24.4539 12.1371 25.1599 12.878 25.7832 13.5284C26.2241 13.9888 26.8914 14.6845 26.8914 14.9948C26.8914 15.3052 26.2293 16.006 25.7884 16.4664ZM21.2703 10.7987C21.4149 10.9429 21.5297 11.1142 21.608 11.3028C21.6863 11.4914 21.7267 11.6936 21.7267 11.8978C21.7267 12.1021 21.6863 12.3043 21.608 12.4929C21.5297 12.6815 21.4149 12.8528 21.2703 12.997L14.0289 20.2384C13.8847 20.383 13.7134 20.4978 13.5248 20.5761C13.3362 20.6544 13.134 20.6948 12.9297 20.6948C12.7255 20.6948 12.5233 20.6544 12.3347 20.5761C12.1461 20.4978 11.9748 20.383 11.8306 20.2384L8.72715 17.1349C8.58281 16.9906 8.46832 16.8192 8.3902 16.6306C8.31208 16.442 8.27188 16.2399 8.27188 16.0358C8.27188 15.8316 8.31208 15.6295 8.3902 15.4409C8.46832 15.2523 8.58281 15.081 8.72715 14.9366C8.8715 14.7923 9.04285 14.6778 9.23144 14.5997C9.42003 14.5216 9.62216 14.4814 9.82629 14.4814C10.0304 14.4814 10.2326 14.5216 10.4211 14.5997C10.6097 14.6778 10.7811 14.7923 10.9254 14.9366L12.931 16.9397L19.0746 10.7948C19.2189 10.6508 19.3903 10.5367 19.5788 10.4589C19.7673 10.3811 19.9693 10.3413 20.1732 10.3417C20.3771 10.342 20.579 10.3826 20.7672 10.461C20.9555 10.5394 21.1264 10.6542 21.2703 10.7987Z" fill="black"/>
</svg>
