<svg width="28" height="28" viewBox="0 0 28 28" fill="none" xmlns="http://www.w3.org/2000/svg">
<path d="M14 0C11.2311 0 8.52431 0.821086 6.22202 2.35943C3.91973 3.89776 2.12532 6.08426 1.06569 8.64243C0.00606598 11.2006 -0.271181 14.0155 0.269012 16.7313C0.809205 19.447 2.14258 21.9416 4.10051 23.8995C6.05845 25.8574 8.55301 27.1908 11.2687 27.731C13.9845 28.2712 16.7994 27.9939 19.3576 26.9343C21.9157 25.8747 24.1022 24.0803 25.6406 21.778C27.1789 19.4757 28 16.7689 28 14C28 12.1615 27.6379 10.341 26.9343 8.64243C26.2307 6.94387 25.1995 5.40052 23.8995 4.1005C22.5995 2.80048 21.0561 1.76925 19.3576 1.06569C17.659 0.362121 15.8385 0 14 0ZM14 25.2C11.7849 25.2 9.61945 24.5431 7.77762 23.3125C5.93579 22.0818 4.50026 20.3326 3.65256 18.2861C2.80485 16.2395 2.58306 13.9876 3.01521 11.815C3.44737 9.6424 4.51406 7.64675 6.08041 6.0804C7.64676 4.51406 9.64241 3.44736 11.815 3.0152C13.9876 2.58305 16.2395 2.80485 18.2861 3.65255C20.3326 4.50025 22.0818 5.93578 23.3125 7.77761C24.5431 9.61944 25.2 11.7848 25.2 14C25.2 16.9704 24.02 19.8192 21.9196 21.9196C19.8192 24.02 16.9704 25.2 14 25.2Z" fill="black"/>
<path d="M14 12.6C11.2 12.6 11.2 11.718 11.2 11.2C11.2 10.682 12.18 9.8 14 9.8C15.82 9.8 15.946 10.696 15.96 11.2H18.76C18.7411 10.2463 18.398 9.32737 17.7873 8.59454C17.1767 7.86171 16.3347 7.3586 15.4 7.16801V5.60001H12.6V7.12601C9.79999 7.58801 8.39999 9.39401 8.39999 11.2C8.39999 12.768 9.12799 15.4 14 15.4C16.8 15.4 16.8 16.352 16.8 16.8C16.8 17.248 15.932 18.2 14 18.2C11.424 18.2 11.2 16.996 11.2 16.8H8.39999C8.39999 18.088 9.32399 20.37 12.6 20.888V22.4H15.4V20.888C18.2 20.412 19.6 18.606 19.6 16.8C19.6 15.232 18.872 12.6 14 12.6Z" fill="black"/>
</svg>
